<svg width="512" height="512" viewBox="0 0 512 512" fill="none" xmlns="http://www.w3.org/2000/svg">
<path d="M431.512 24.488L312 144L368 200L487.512 80.488C492.944 75.056 496 67.68 496 60C496 52.32 492.944 44.944 487.512 39.512L472.48 24.48C467.056 19.056 459.68 16 452 16C444.32 16 436.944 19.056 431.512 24.488Z" fill="#E4964B" fill-opacity="0.09"/>
<path d="M448 79.9839C439.168 79.9839 432 72.8159 432 63.9919C432 55.1599 439.168 47.9919 448 47.9919C456.824 47.9919 463.992 55.1599 463.992 63.9919C463.992 72.8159 456.824 79.9839 448 79.9839Z" fill="#E4964B" fill-opacity="0.09"/>
<path d="M478.144 18.8239C471.152 11.8399 461.872 7.99194 451.984 7.99194C442.12 7.99194 432.832 11.8319 425.84 18.8239L282.328 162.328C282.32 162.336 282.32 162.344 282.312 162.352L261.648 183.016C258.136 186.528 255.944 190.872 255.064 195.416L121.76 259.928C52.6482 293.368 7.99219 364.584 7.99219 441.368C7.99219 458.096 14.5042 473.824 26.3362 485.656C38.1682 497.48 53.8882 503.984 70.6162 503.984C147.4 503.984 218.616 459.336 252.056 390.216L316.552 256.912C321.224 256.016 325.528 253.768 328.968 250.328L349.624 229.664C349.632 229.656 349.64 229.656 349.648 229.648L493.16 86.1439C500.136 79.1599 503.984 69.8719 503.984 59.9919C503.984 50.1119 500.144 40.8239 493.16 33.8399L478.144 18.8239ZM311.992 155.312L356.672 199.992L343.992 212.672L299.304 167.992L311.992 155.312ZM33.0482 467.616C30.2162 461.384 30.2802 454.096 33.6482 447.736C73.0962 373.232 133.112 312.64 207.208 272.512L252.888 247.76L33.0482 467.616ZM64.2402 478.336C57.8962 481.696 50.6082 481.76 44.3762 478.936L264.216 259.08L239.472 304.768C199.336 378.872 138.752 438.888 64.2402 478.336ZM128.736 274.328L257.864 211.84C258.904 213.664 260.096 215.416 261.656 216.968L266.752 222.064L199.6 258.448C125.64 298.496 65.2642 358.232 24.3522 431.512C27.9682 364.648 68.0722 303.68 128.736 274.328ZM237.656 383.248C208.304 443.896 147.352 484 80.4882 487.624C153.76 446.704 213.488 386.336 253.536 312.384L289.912 245.224L295.016 250.328C296.552 251.864 298.304 253.064 300.136 254.112L237.656 383.248ZM317.648 239.016C314.536 242.144 309.448 242.144 306.336 239.016L272.968 205.648C271.456 204.144 270.624 202.136 270.624 199.992C270.624 197.848 271.456 195.84 272.968 194.328L287.984 179.304L332.672 223.992L317.648 239.016ZM481.84 74.8239L367.992 188.672L323.312 143.992L437.168 30.1439C445.088 22.2159 458.904 22.2079 466.824 30.1439L481.848 45.1679C485.808 49.1199 487.992 54.3919 487.992 59.9999C487.984 65.5919 485.808 70.8639 481.84 74.8239Z" fill="#E4964B"/>
<path d="M448 47.9919C439.168 47.9919 432 55.1599 432 63.9919C432 72.8159 439.168 79.9839 448 79.9839C456.824 79.9839 463.992 72.8159 463.992 63.9919C463.992 55.1679 456.824 47.9919 448 47.9919Z" fill="#E4964B"/>
<path d="M7.99219 255.984H23.9922C23.9922 203.056 67.0562 159.992 119.984 159.992V143.992C58.2322 143.992 7.99219 194.232 7.99219 255.984Z" fill="#E4964B"/>
<path d="M40 255.984H56C56 220.696 84.704 191.992 119.992 191.992V175.992C75.88 175.992 40 211.872 40 255.984Z" fill="#E4964B"/>
<path d="M256 503.984C317.752 503.984 367.992 453.752 367.992 392H351.992C351.992 444.928 308.928 487.984 256 487.984V503.984Z" fill="#E4964B"/>
<path d="M319.992 391.992C319.992 427.28 291.288 455.984 256 455.984V471.984C300.112 471.984 335.992 436.104 335.992 391.992H319.992Z" fill="#E4964B"/>
</svg>
