<svg width="512" height="512" viewBox="0 0 512 512" fill="none" xmlns="http://www.w3.org/2000/svg">
<path d="M472 224H40C33.6348 224 27.5303 226.529 23.0294 231.029C18.5286 235.53 16 241.635 16 248V472C16 478.365 18.5286 484.47 23.0294 488.971C27.5303 493.471 33.6348 496 40 496H472C478.365 496 484.47 493.471 488.971 488.971C493.471 484.47 496 478.365 496 472V248C496 241.635 493.471 235.53 488.971 231.029C484.47 226.529 478.365 224 472 224ZM464 464H48V256H464V464Z" fill="#E4964B" fill-opacity="0.09"/>
<path d="M256 80C273.673 80 288 65.6731 288 48C288 30.3269 273.673 16 256 16C238.327 16 224 30.3269 224 48C224 65.6731 238.327 80 256 80Z" fill="#E4964B" fill-opacity="0.09"/>
<path d="M472 216H467.312L295.624 44.312C294.755 34.4022 290.205 25.1776 282.87 18.4576C275.535 11.7376 265.948 8.01001 256 8.01001C246.052 8.01001 236.465 11.7376 229.13 18.4576C221.795 25.1776 217.245 34.4022 216.376 44.312L44.688 216H40C31.5131 216 23.3737 219.371 17.3726 225.373C11.3714 231.374 8 239.513 8 248V472C8 480.487 11.3714 488.626 17.3726 494.627C23.3737 500.629 31.5131 504 40 504H472C480.487 504 488.626 500.629 494.627 494.627C500.629 488.626 504 480.487 504 472V248C504 239.513 500.629 231.374 494.627 225.373C488.626 219.371 480.487 216 472 216ZM239.2 84.152C244.453 86.6844 250.209 87.9996 256.04 87.9996C261.871 87.9996 267.627 86.6844 272.88 84.152L404.688 216H107.312L239.2 84.152ZM427.312 216L285.768 74.456C288.597 71.3381 290.916 67.7932 292.64 63.952L444.688 216H427.312ZM256 24C260.747 24 265.387 25.4076 269.334 28.0447C273.28 30.6819 276.357 34.4302 278.173 38.8156C279.99 43.201 280.465 48.0266 279.539 52.6822C278.613 57.3377 276.327 61.6141 272.971 64.9706C269.614 68.327 265.338 70.6128 260.682 71.5388C256.027 72.4649 251.201 71.9896 246.816 70.1731C242.43 68.3566 238.682 65.2805 236.045 61.3337C233.408 57.3869 232 52.7467 232 48C232 41.6348 234.529 35.5303 239.029 31.0294C243.53 26.5286 249.635 24 256 24ZM219.36 63.952C221.084 67.7932 223.403 71.3381 226.232 74.456L84.688 216H67.312L219.36 63.952ZM488 472C488 476.243 486.314 480.313 483.314 483.314C480.313 486.314 476.243 488 472 488H40C35.7565 488 31.6869 486.314 28.6863 483.314C25.6857 480.313 24 476.243 24 472V248C24 243.757 25.6857 239.687 28.6863 236.686C31.6869 233.686 35.7565 232 40 232H472C476.243 232 480.313 233.686 483.314 236.686C486.314 239.687 488 243.757 488 248V472Z" fill="#E4964B"/>
<path d="M144 408C152.487 408 160.626 404.629 166.627 398.627C172.629 392.626 176 384.487 176 376V344C176 335.513 172.629 327.374 166.627 321.373C160.626 315.371 152.487 312 144 312C135.513 312 127.374 315.371 121.373 321.373C115.371 327.374 112 335.513 112 344V376C112 384.487 115.371 392.626 121.373 398.627C127.374 404.629 135.513 408 144 408ZM128 344C128 339.757 129.686 335.687 132.686 332.686C135.687 329.686 139.757 328 144 328C148.243 328 152.313 329.686 155.314 332.686C158.314 335.687 160 339.757 160 344V376C160 380.243 158.314 384.313 155.314 387.314C152.313 390.314 148.243 392 144 392C139.757 392 135.687 390.314 132.686 387.314C129.686 384.313 128 380.243 128 376V344Z" fill="#E4964B"/>
<path d="M464 248H48C45.8783 248 43.8434 248.843 42.3431 250.343C40.8429 251.843 40 253.878 40 256V464C40 466.122 40.8429 468.157 42.3431 469.657C43.8434 471.157 45.8783 472 48 472H464C466.122 472 468.157 471.157 469.657 469.657C471.157 468.157 472 466.122 472 464V256C472 253.878 471.157 251.843 469.657 250.343C468.157 248.843 466.122 248 464 248ZM456 456H56V264H456V456Z" fill="#E4964B"/>
<path d="M208 376H224C232.487 376 240.626 372.629 246.627 366.627C252.629 360.626 256 352.487 256 344C256 335.513 252.629 327.374 246.627 321.373C240.626 315.371 232.487 312 224 312H200C197.878 312 195.843 312.843 194.343 314.343C192.843 315.843 192 317.878 192 320V408H208V376ZM208 328H224C228.243 328 232.313 329.686 235.314 332.686C238.314 335.687 240 339.757 240 344C240 348.243 238.314 352.313 235.314 355.314C232.313 358.314 228.243 360 224 360H208V328Z" fill="#E4964B"/>
<path d="M280 408H320V392H288V368H320V352H288V328H320V312H280C277.878 312 275.843 312.843 274.343 314.343C272.843 315.843 272 317.878 272 320V400C272 402.122 272.843 404.157 274.343 405.657C275.843 407.157 277.878 408 280 408Z" fill="#E4964B"/>
<path d="M352 348.88L385.144 404.12C385.855 405.303 386.86 406.282 388.061 406.962C389.263 407.642 390.62 408 392 408C392.722 407.998 393.44 407.901 394.136 407.712C395.822 407.245 397.309 406.238 398.368 404.845C399.427 403.452 400.001 401.75 400 400V312H384V371.12L350.856 315.88C349.955 314.381 348.588 313.219 346.963 312.572C345.339 311.924 343.547 311.826 341.862 312.293C340.177 312.761 338.691 313.767 337.633 315.159C336.574 316.551 336.001 318.251 336 320V408H352V348.88Z" fill="#E4964B"/>
</svg>
