<svg width="512" height="512" viewBox="0 0 512 512" fill="none" xmlns="http://www.w3.org/2000/svg">
<path d="M368 304H496V464H368V304Z" fill="#E4964B" fill-opacity="0.09"/>
<path d="M112 120V136C112 148.73 117.057 160.939 126.059 169.941C135.061 178.943 147.27 184 160 184C172.73 184 184.939 178.943 193.941 169.941C202.943 160.939 208 148.73 208 136V120H112Z" fill="#E4964B" fill-opacity="0.09"/>
<path d="M208 120V136C208 148.73 213.057 160.939 222.059 169.941C231.061 178.943 243.27 184 256 184C268.73 184 280.939 178.943 289.941 169.941C298.943 160.939 304 148.73 304 136V120H208Z" fill="#E4964B" fill-opacity="0.09"/>
<path d="M304 120V136C304 148.73 309.057 160.939 318.059 169.941C327.061 178.943 339.27 184 352 184C364.73 184 376.939 178.943 385.941 169.941C394.943 160.939 400 148.73 400 136V120H304Z" fill="#E4964B" fill-opacity="0.09"/>
<path d="M400 119.336V135.336C400 148.066 405.057 160.275 414.059 169.277C423.061 178.279 435.27 183.336 448 183.336C460.73 183.336 472.939 178.279 481.941 169.277C490.943 160.275 496 148.066 496 135.336V119.336H400Z" fill="#E4964B" fill-opacity="0.09"/>
<path d="M408 16H104L16 120H496L408 16Z" fill="#E4964B" fill-opacity="0.09"/>
<path d="M16 120V136C16 148.73 21.0571 160.939 30.0589 169.941C39.0606 178.943 51.2696 184 64 184C76.7304 184 88.9394 178.943 97.9411 169.941C106.943 160.939 112 148.73 112 136V120H16Z" fill="#E4964B" fill-opacity="0.09"/>
<path d="M183.992 16L112 120H208L240 16H183.992Z" fill="#E4964B" fill-opacity="0.09"/>
<path d="M328.008 16H272L304 120H400L328.008 16Z" fill="#E4964B" fill-opacity="0.09"/>
<path d="M504 136V120C503.999 118.107 503.327 116.276 502.104 114.832L414.104 10.832C413.353 9.94495 412.418 9.2321 411.364 8.74302C410.31 8.25394 409.162 8.00039 408 8H104C102.838 8.00039 101.69 8.25394 100.636 8.74302C99.5816 9.2321 98.6467 9.94495 97.896 10.832L9.896 114.832C8.67255 116.276 8.00075 118.107 8 120V136C7.99826 150.633 13.7441 164.682 24 175.12V408C24 410.122 24.8429 412.157 26.3431 413.657C27.8434 415.157 29.8783 416 32 416H360V464C360 466.122 360.843 468.157 362.343 469.657C363.843 471.157 365.878 472 368 472H376V496C376 498.122 376.843 500.157 378.343 501.657C379.843 503.157 381.878 504 384 504H416C418.122 504 420.157 503.157 421.657 501.657C423.157 500.157 424 498.122 424 496V472H440V496C440 498.122 440.843 500.157 442.343 501.657C443.843 503.157 445.878 504 448 504H480C482.122 504 484.157 503.157 485.657 501.657C487.157 500.157 488 498.122 488 496V472H496C498.122 472 500.157 471.157 501.657 469.657C503.157 468.157 504 466.122 504 464V304C504 301.878 503.157 299.843 501.657 298.343C500.157 296.843 498.122 296 496 296H488V175.12C498.256 164.682 504.002 150.633 504 136ZM448 176C437.395 175.987 427.228 171.769 419.73 164.27C412.231 156.772 408.013 146.605 408 136V128H488V136C487.987 146.605 483.769 156.772 476.27 164.27C468.772 171.769 458.605 175.987 448 176ZM24 136V128H104V136C104 146.609 99.7857 156.783 92.2843 164.284C84.7828 171.786 74.6087 176 64 176C53.3913 176 43.2172 171.786 35.7157 164.284C28.2143 156.783 24 146.609 24 136ZM309.904 112L282.832 24H323.816L384.728 112H309.904ZM293.168 112H218.832L245.904 24H266.096L293.168 112ZM202.096 112H127.272L188.184 24H229.168L202.096 112ZM120 128H200V136C200 146.609 195.786 156.783 188.284 164.284C180.783 171.786 170.609 176 160 176C149.391 176 139.217 171.786 131.716 164.284C124.214 156.783 120 146.609 120 136V128ZM216 128H296V136C296 146.609 291.786 156.783 284.284 164.284C276.783 171.786 266.609 176 256 176C245.391 176 235.217 171.786 227.716 164.284C220.214 156.783 216 146.609 216 136V128ZM312 128H392V136C392 146.609 387.786 156.783 380.284 164.284C372.783 171.786 362.609 176 352 176C341.391 176 331.217 171.786 323.716 164.284C316.214 156.783 312 146.609 312 136V128ZM478.752 112H404.192L343.28 24H404.288L478.752 112ZM107.712 24H168.72L107.808 112H33.248L107.712 24ZM40 368H56V400H40V368ZM216 400H152V352H160C166.365 352 172.47 349.471 176.971 344.971C181.471 340.47 184 334.365 184 328V312C184 305.635 181.471 299.53 176.971 295.029C172.47 290.529 166.365 288 160 288H152V240H216V400ZM152 304H160C162.122 304 164.157 304.843 165.657 306.343C167.157 307.843 168 309.878 168 312V328C168 330.122 167.157 332.157 165.657 333.657C164.157 335.157 162.122 336 160 336H152V304ZM136 336H128C125.878 336 123.843 335.157 122.343 333.657C120.843 332.157 120 330.122 120 328V312C120 309.878 120.843 307.843 122.343 306.343C123.843 304.843 125.878 304 128 304H136V336ZM136 288H128C121.635 288 115.53 290.529 111.029 295.029C106.529 299.53 104 305.635 104 312V328C104 334.365 106.529 340.47 111.029 344.971C115.53 349.471 121.635 352 128 352H136V400H72V240H136V288ZM232 400V368H360V400H232ZM360 304V320H264V291.312L315.312 240H340.688L322.344 258.344L333.656 269.656L363.312 240H440V296H368C365.878 296 363.843 296.843 362.343 298.343C360.843 299.843 360 301.878 360 304ZM264 268.688V240H292.688L264 268.688ZM408 488H392V472H408V488ZM472 488H456V472H472V488ZM488 456H376V312H488V456ZM456 296V232C456 229.878 455.157 227.843 453.657 226.343C452.157 224.843 450.122 224 448 224H256C253.878 224 251.843 224.843 250.343 226.343C248.843 227.843 248 229.878 248 232V328C248 330.122 248.843 332.157 250.343 333.657C251.843 335.157 253.878 336 256 336H360V352H232V232C232 229.878 231.157 227.843 229.657 226.343C228.157 224.843 226.122 224 224 224H64C61.8783 224 59.8434 224.843 58.3431 226.343C56.8429 227.843 56 229.878 56 232V352H40V186.52C52.5565 192.544 66.9146 193.645 80.2427 189.605C93.5708 185.565 104.901 176.678 112 164.696C116.947 173.018 123.973 179.911 132.388 184.699C140.803 189.486 150.318 192.003 160 192.003C169.682 192.003 179.197 189.486 187.612 184.699C196.027 179.911 203.053 173.018 208 164.696C212.947 173.018 219.973 179.911 228.388 184.699C236.803 189.486 246.318 192.003 256 192.003C265.682 192.003 275.197 189.486 283.612 184.699C292.027 179.911 299.053 173.018 304 164.696C308.947 173.018 315.973 179.911 324.388 184.699C332.803 189.486 342.318 192.003 352 192.003C361.682 192.003 371.197 189.486 379.612 184.699C388.027 179.911 395.053 173.018 400 164.696C407.099 176.678 418.429 185.565 431.757 189.605C445.085 193.645 459.443 192.544 472 186.52V296H456Z" fill="#E4964B"/>
<path d="M298.282 282.342L314.28 266.344L325.594 277.658L309.596 293.655L298.282 282.342Z" fill="#E4964B"/>
<path d="M392 328H472V344H392V328Z" fill="#E4964B"/>
<path d="M392 360H408V376H392V360Z" fill="#E4964B"/>
<path d="M424 360H472V376H424V360Z" fill="#E4964B"/>
<path d="M392 392H408V408H392V392Z" fill="#E4964B"/>
<path d="M424 392H472V408H424V392Z" fill="#E4964B"/>
<path d="M392 424H408V440H392V424Z" fill="#E4964B"/>
<path d="M424 424H472V440H424V424Z" fill="#E4964B"/>
</svg>
