<svg width="512" height="512" viewBox="0 0 512 512" fill="none" xmlns="http://www.w3.org/2000/svg">
<path d="M168 345.408L136 352.944V440H168V345.408Z" fill="#E4964B" fill-opacity="0.09"/>
<path d="M120 440H392V496H120V440Z" fill="#E4964B" fill-opacity="0.09"/>
<path d="M376 352.944L344 345.408V440H376V352.944Z" fill="#E4964B" fill-opacity="0.09"/>
<path d="M216 408L256 384L208 336L186.272 341.112L216 408Z" fill="#E4964B" fill-opacity="0.09"/>
<path d="M325.728 341.112L304 336L256 384L296 408L325.728 341.112Z" fill="#E4964B" fill-opacity="0.09"/>
<path d="M364 168C371.314 167.999 378.336 170.872 383.552 176H384V96C384 85.4943 381.931 75.0914 377.91 65.3853C373.89 55.6793 367.997 46.8601 360.569 39.4315C353.14 32.0028 344.321 26.11 334.615 22.0896C324.909 18.0693 314.506 16 304 16H232C221.391 16 211.217 20.2143 203.716 27.7157C196.214 35.2172 192 45.3913 192 56H176C163.27 56 151.061 61.0571 142.059 70.0589C133.057 79.0606 128 91.2696 128 104V176H128.448C133.664 170.872 140.686 167.999 148 168H160C166.365 168 172.47 165.471 176.971 160.971C181.471 156.47 184 150.365 184 144C184 139.757 185.686 135.687 188.686 132.686C191.687 129.686 195.757 128 200 128H312C316.243 128 320.313 129.686 323.314 132.686C326.314 135.687 328 139.757 328 144C328 150.365 330.529 156.47 335.029 160.971C339.53 165.471 345.635 168 352 168H364Z" fill="#E4964B" fill-opacity="0.09"/>
<path d="M398.664 350.048L312 329.664V312.864C326.67 304.363 339.22 292.646 348.706 278.593C358.193 264.541 364.368 248.52 366.768 231.736C373.291 231.296 379.568 229.07 384.911 225.302C390.255 221.533 394.459 216.368 397.064 210.372C399.668 204.375 400.574 197.777 399.681 191.3C398.788 184.823 396.131 178.716 392 173.648V96C391.973 72.6694 382.692 50.3022 366.195 33.805C349.698 17.3078 327.331 8.02752 304 8H232C220.66 8.0142 209.689 12.0364 201.028 19.3559C192.366 26.6754 186.57 36.821 184.664 48H176C161.153 48.0169 146.919 53.9224 136.421 64.4207C125.922 74.9191 120.017 89.1531 120 104V173.648C115.874 178.716 113.221 184.822 112.33 191.296C111.439 197.771 112.346 204.365 114.95 210.36C117.555 216.354 121.757 221.517 127.098 225.284C132.438 229.051 138.712 231.278 145.232 231.72C147.632 248.504 153.807 264.525 163.294 278.577C172.78 292.63 185.33 304.347 200 312.848V329.648L113.336 350.048C99.2737 353.314 86.7359 361.255 77.7737 372.573C68.8115 383.891 63.9555 397.915 64.0001 412.352V496C64.0001 498.122 64.8429 500.157 66.3432 501.657C67.8435 503.157 69.8783 504 72.0001 504H440C442.122 504 444.157 503.157 445.657 501.657C447.157 500.157 448 498.122 448 496V412.352C448.045 397.915 443.189 383.891 434.226 372.573C425.264 361.255 412.726 353.314 398.664 350.048ZM352 355.512L368 359.28V432H352V355.512ZM384 196C383.999 200.609 382.406 205.077 379.491 208.647C376.575 212.217 372.516 214.67 368 215.592V176.392C372.519 177.314 376.58 179.77 379.496 183.343C382.412 186.917 384.003 191.388 384 196ZM144 215.592C139.479 214.674 135.414 212.221 132.495 208.649C129.575 205.077 127.98 200.605 127.98 195.992C127.98 191.379 129.575 186.907 132.495 183.335C135.414 179.763 139.479 177.31 144 176.392V215.592ZM136 162.208V104C136.013 93.3952 140.231 83.2285 147.73 75.7298C155.229 68.2311 165.395 64.0127 176 64H192C194.122 64 196.157 63.1571 197.657 61.6569C199.157 60.1566 200 58.1217 200 56C200 47.5131 203.371 39.3737 209.373 33.3726C215.374 27.3714 223.513 24 232 24H304C323.088 24.0233 341.388 31.6165 354.886 45.114C368.384 58.6116 375.977 76.9116 376 96V162.208C372.157 160.786 368.097 160.039 364 160H352C347.757 160 343.687 158.314 340.686 155.314C337.686 152.313 336 148.243 336 144C336 137.635 333.471 131.53 328.971 127.029C324.47 122.529 318.365 120 312 120H200C193.635 120 187.53 122.529 183.029 127.029C178.529 131.53 176 137.635 176 144C176 148.243 174.314 152.313 171.314 155.314C168.313 158.314 164.244 160 160 160H148C143.903 160.039 139.843 160.786 136 162.208ZM160 216V176C168.487 176 176.626 172.629 182.627 166.627C188.629 160.626 192 152.487 192 144C192 141.878 192.843 139.843 194.343 138.343C195.843 136.843 197.878 136 200 136H312C314.122 136 316.157 136.843 317.657 138.343C319.157 139.843 320 141.878 320 144C320 152.487 323.371 160.626 329.373 166.627C335.374 172.629 343.513 176 352 176V216C352 241.461 341.886 265.879 323.882 283.882C305.879 301.886 281.461 312 256 312C230.539 312 206.121 301.886 188.118 283.882C170.114 265.879 160 241.461 160 216ZM216 332.688V320.488C241.726 330.504 270.274 330.504 296 320.488V332.688L256 372.688L216 332.688ZM243.096 382.4L220.12 396.192L201.224 345.792L205.496 344.784L243.096 382.4ZM306.504 344.8L310.776 345.808L291.88 396.208L268.904 382.4L306.504 344.8ZM176 351.752L185.52 349.512L208.504 410.808C208.916 411.906 209.565 412.901 210.404 413.721C211.243 414.54 212.252 415.166 213.36 415.552C214.209 415.846 215.101 415.997 216 416C217.452 416 218.876 415.604 220.12 414.856L256 393.328L291.88 414.856C293.124 415.604 294.548 416 296 416C296.899 415.997 297.791 415.846 298.64 415.552C299.748 415.166 300.757 414.54 301.596 413.721C302.435 412.901 303.084 411.906 303.496 410.808L326.48 349.512L336 351.752V432H176V351.752ZM144 359.28L160 355.512V432H144V359.28ZM112 440V488H80.0001V412.352C79.9662 401.526 83.6079 391.008 90.3294 382.521C97.0508 374.034 106.454 368.079 117 365.632L128 363.04V432H120C117.878 432 115.843 432.843 114.343 434.343C112.843 435.843 112 437.878 112 440ZM384 488H128V448H384V488ZM432 488H400V440C400 437.878 399.157 435.843 397.657 434.343C396.157 432.843 394.122 432 392 432H384V363.04L395 365.632C405.546 368.079 414.949 374.034 421.671 382.521C428.392 391.008 432.034 401.526 432 412.352V488Z" fill="#E4964B"/>
<path d="M288 264H272C272 268.243 270.314 272.313 267.314 275.314C264.313 278.314 260.243 280 256 280C251.757 280 247.687 278.314 244.686 275.314C241.686 272.313 240 268.243 240 264H224C224 272.487 227.371 280.626 233.373 286.627C239.374 292.629 247.513 296 256 296C264.487 296 272.626 292.629 278.627 286.627C284.629 280.626 288 272.487 288 264Z" fill="#E4964B"/>
<path d="M192 192H208V224H192V192Z" fill="#E4964B"/>
<path d="M304 192H320V224H304V192Z" fill="#E4964B"/>
<path d="M144 464H160V480H144V464Z" fill="#E4964B"/>
<path d="M352 464H368V480H352V464Z" fill="#E4964B"/>
</svg>
