<svg width="512" height="512" viewBox="0 0 512 512" fill="none" xmlns="http://www.w3.org/2000/svg">
<path d="M430.928 261.76C429.832 284.24 427.912 312.624 425.128 332.08C424.48 336.624 420.592 340 416 340C411.408 340 407.52 336.624 406.872 332.08C403.672 309.688 401.6 278.072 400.632 252.752L397.232 251.776C382.312 247.52 367.208 244.008 352 241.12V247.432C352 279.768 349.704 312.064 345.128 344.08C344.48 348.624 340.592 352 336 352C331.408 352 327.52 348.624 326.872 344.08C322.296 312.064 320 279.768 320 247.432V236.08C304.08 234.08 288.064 232.784 272 232.28V263.432C272 295.768 269.704 328.064 265.128 360.08C264.48 364.624 260.592 368 256 368C251.408 368 247.52 364.624 246.872 360.08C242.296 328.064 240 295.768 240 263.432V232.28C223.936 232.776 207.92 234.08 192 236.08V247.432C192 279.768 189.704 312.064 185.128 344.08C184.48 348.624 180.592 352 176 352C171.408 352 167.52 348.624 166.872 344.08C162.296 312.064 160 279.768 160 247.432V241.12C144.792 244.008 129.688 247.52 114.768 251.784L111.784 252.64C111.112 279.224 108.896 305.752 105.128 332.088C104.48 336.624 100.592 340 96 340C91.408 340 87.52 336.624 86.872 332.08C84.144 313 82.248 284.36 81.144 261.736C42.232 276.288 16 313.576 16 355.672C16 411.08 60.92 456 116.328 456H395.68C451.08 456 496 411.08 496 355.672C496 313.6 469.8 276.328 430.928 261.76Z" fill="#E4964B" fill-opacity="0.09"/>
<path d="M116.328 463.992H395.672C455.4 463.992 504 415.4 504 355.664C504 307.56 471.688 264.728 425.432 251.512L422.008 250.536L439.624 232.928C481.856 190.688 481.856 121.968 439.624 79.736C405.6 45.712 352.472 38.272 310.408 61.632L286.76 74.768C244.352 98.328 205.448 127.672 171.136 161.984C145.352 187.768 122.288 216.384 102.424 246.984L86.5519 251.52C40.2879 264.744 7.98389 307.568 7.98389 355.672C7.99189 415.4 56.5919 463.992 116.328 463.992ZM423.104 267.584C422.096 288.744 420.192 310.024 417.208 330.944C417.04 332.136 414.968 332.152 414.784 330.944C411.592 308.608 409.584 285.928 408.648 263.36L421.04 266.896C421.736 267.096 422.408 267.368 423.104 267.584ZM318.176 75.616C318.816 75.264 319.48 74.976 320.128 74.64C334.36 90.304 348.064 106.688 360.76 123.608C361.12 124.096 361.08 124.784 360.648 125.208C360.224 125.656 359.536 125.696 359.048 125.32C341.008 111.792 323.552 97.176 306.92 81.872L318.176 75.616ZM292.232 90.088C310.392 107.064 329.584 123.224 349.456 138.128C352.512 140.424 356.144 141.544 359.776 141.544C364.224 141.544 368.656 139.848 371.976 136.528C377.992 130.504 378.68 120.824 373.576 114.016C361.736 98.224 348.968 82.968 335.784 68.216C367.944 58.352 403.896 66.624 428.312 91.048C464.312 127.04 464.312 185.616 428.312 221.608L404.408 245.504L399.432 244.08C354.8 231.336 308.592 224.752 262.312 224.2C247.752 206.392 232.232 189.112 216.008 172.888L199.896 156.776C207.816 149.568 215.944 142.608 224.296 135.928L227.32 138.952C250.376 162.008 275.296 183.616 301.376 203.176C304.432 205.472 308.064 206.592 311.688 206.592C316.136 206.592 320.568 204.896 323.888 201.576C329.904 195.552 330.6 185.872 325.488 179.064C306.592 153.88 285.768 129.824 263.6 107.432C272.936 101.336 282.488 95.568 292.232 90.088ZM328 245.176C333.344 245.944 338.672 246.776 343.992 247.712C343.976 279.48 341.704 311.512 337.208 342.944C337.04 344.128 334.96 344.128 334.784 342.944C330.28 311.408 328 279.264 328 247.432V245.176ZM248 240.136C250.664 240.096 253.328 240 256 240C258.664 240 261.328 240.096 263.992 240.136V263.432C263.992 295.288 261.712 327.424 257.208 358.944C257.04 360.128 254.96 360.128 254.784 358.944C250.28 327.408 248 295.264 248 263.432V240.136ZM250.136 116.528C272.584 138.992 293.624 163.264 312.68 188.664C313.04 189.152 312.992 189.832 312.56 190.264C312.136 190.696 311.456 190.76 310.96 190.384C285.48 171.272 261.144 150.168 238.624 127.648L237.024 126.048C241.352 122.808 245.712 119.624 250.136 116.528ZM188.216 167.736L204.688 184.208C217.456 196.976 229.632 210.52 241.392 224.344C235.904 224.496 230.424 224.752 224.944 225.072C214.144 215.568 203.52 205.672 193.368 195.52L176.952 179.104C178.808 177.192 180.568 175.184 182.456 173.296C184.344 171.408 186.296 169.592 188.216 167.736ZM136.8 229.464C139.056 231.72 141.224 234.064 143.448 236.352C137.68 237.624 131.928 238.984 126.208 240.448C129.168 236.232 132.224 232.096 135.312 227.968L136.8 229.464ZM162.064 232.6C157.464 227.728 152.848 222.88 148.112 218.144L145.088 215.12C151.776 206.76 158.744 198.64 165.944 190.728L182.056 206.84C188.84 213.624 195.864 220.256 202.968 226.792C189.264 228.176 175.624 230.136 162.064 232.6ZM184 245.176V247.432C184 279.264 181.72 311.408 177.208 342.944C177.04 344.12 174.96 344.136 174.784 342.944C170.296 311.512 168.016 279.48 168 247.712C173.32 246.776 178.656 245.944 184 245.176ZM103.344 263.36C102.408 285.928 100.4 308.608 97.2079 330.944C97.0399 332.144 94.9599 332.144 94.7839 330.944C91.7999 310.016 89.8959 288.744 88.8879 267.584C89.5839 267.368 90.2559 267.096 90.9599 266.896L103.344 263.36ZM73.1359 274.176C74.2479 293.912 76.1599 313.712 78.9439 333.2C80.1439 341.64 87.4799 348 95.9999 348C104.512 348 111.84 341.64 113.048 333.2C116.56 308.608 118.704 283.608 119.544 258.776C130.304 255.76 141.144 253.088 152.064 250.792C152.216 282.296 154.496 314.04 158.952 345.192C160.152 353.624 167.488 359.976 176.008 359.976C184.52 359.976 191.848 353.624 193.056 345.192C197.664 312.92 200 280.024 200 247.432V243.152C210.632 241.968 221.304 241.144 232 240.64V263.432C232 296.024 234.336 328.928 238.952 361.208C240.152 369.64 247.488 375.992 256.008 375.992C264.52 375.992 271.848 369.64 273.056 361.208C277.664 328.944 280 296.04 280 263.432V240.64C290.696 241.144 301.368 241.968 312 243.152V247.432C312 280.024 314.336 312.928 318.952 345.208C320.152 353.64 327.488 359.992 336.008 359.992C344.52 359.992 351.848 353.64 353.056 345.208C357.504 314.056 359.784 282.312 359.944 250.808C370.864 253.096 381.704 255.776 392.464 258.792C393.304 283.624 395.448 308.624 398.96 333.216C400.16 341.656 407.496 348.016 416.008 348.016C424.52 348.016 431.856 341.656 433.056 333.216C435.84 313.728 437.752 293.928 438.864 274.192C468.488 289.968 488 321.192 488 355.664C488 406.568 446.584 447.992 395.672 447.992H116.328C65.4159 447.992 23.9919 406.568 23.9919 355.664C23.9919 321.192 43.5039 289.968 73.1359 274.176Z" fill="#E4964B"/>
</svg>
