<svg width="512" height="512" viewBox="0 0 512 512" fill="none" xmlns="http://www.w3.org/2000/svg">
<path d="M344 16H152C125.488 16 104 37.488 104 64V128C104 136.84 111.16 144 120 144H376C384.84 144 392 136.84 392 128V64C392 37.488 370.512 16 344 16ZM232 96H136V64C136 55.16 143.16 48 152 48H216C224.84 48 232 55.16 232 64V96Z" fill="#E4964B" fill-opacity="0.09"/>
<path d="M215.984 40H152C138.768 40 128 50.768 128 64V96C128 100.424 131.576 104 136 104H231.992C234.12 104 236.16 103.16 237.656 101.656C239.16 100.152 240 98.12 239.992 96L239.984 64C239.984 50.76 229.216 40 215.984 40ZM144 87.992V64C144 59.584 147.584 56 152 56H215.984C220.4 56 223.984 59.584 223.984 64L223.992 88H144V87.992Z" fill="#E4964B"/>
<path d="M351.992 88C343.16 88 335.992 95.176 335.992 104C335.992 112.824 343.16 120 351.992 120C360.816 120 367.984 112.824 367.984 104C367.984 95.168 360.816 88 351.992 88Z" fill="#E4964B"/>
<path d="M304 88C295.168 88 288 95.176 288 104C288 112.824 295.168 120 304 120C312.824 120 319.992 112.824 319.992 104C319.992 95.168 312.824 88 304 88Z" fill="#E4964B"/>
<path d="M303.992 40H319.984V72H303.992V40Z" fill="#E4964B"/>
<path d="M272 40H287.992V72H272V40Z" fill="#E4964B"/>
<path d="M335.992 40H351.984V72H335.992V40Z" fill="#E4964B"/>
<path d="M109.464 465.704C117.096 488.608 138.448 504 162.592 504H349.392C373.544 504 394.896 488.608 402.528 465.704L453.688 312.232C455.144 309.64 456 306.904 456 303.992C456 285.328 424.36 273.424 384 266.136V248C384 234.768 373.232 224 360 224L359.992 182.52C369.28 179.208 375.992 170.408 375.992 160V152C389.224 152 399.992 141.232 399.992 128V64C399.992 33.12 374.872 8 343.992 8H151.992C121.112 8 95.992 33.12 95.992 64V128C95.992 141.232 106.76 152 119.992 152H247.992V160C247.992 170.416 254.704 179.208 263.992 182.52V224C250.76 224 240 234.76 240 248V256.176C168.48 257.608 56 268.784 56 304C56 306.904 56.848 309.624 58.288 312.208L109.464 465.704ZM414.248 379.936L408.816 384C395.08 394.312 374.6 394.32 360.816 384L354.416 379.2C335.184 364.768 306.512 364.76 287.216 379.2L280.816 384C267.072 394.312 246.592 394.32 232.816 384L226.416 379.2C207.184 364.768 178.512 364.76 159.216 379.2L152.816 384C139.072 394.312 118.592 394.32 104.816 384L98.408 379.192C98.016 378.904 97.608 378.648 97.216 378.368L80.728 328.912C122 346.616 205.44 351.992 256 351.992C306.552 351.992 389.976 346.616 431.256 328.912L414.248 379.936ZM387.344 460.648C381.888 477 366.64 488 349.392 488H162.592C145.344 488 130.096 477 124.64 460.648L105.264 402.536C123.568 410.736 146.28 408.904 162.408 396.8L168.808 392C182.592 381.68 203.072 381.688 216.808 392L223.208 396.8C242.488 411.264 271.176 411.232 290.408 396.8L296.808 392C310.584 381.68 331.064 381.688 344.808 392L351.208 396.8C360.84 404.024 372.776 407.992 384.808 407.992C392.248 407.992 399.568 406.312 406.408 403.456L387.344 460.648ZM359.992 240C364.408 240 367.992 243.584 367.992 248V263.544C365.344 263.16 362.68 262.792 359.992 262.44V240ZM336 275.656C338.776 275.928 341.328 276.248 344 276.544V303.992C339.584 303.992 336 300.408 336 295.992V275.656ZM256 272C258.752 272 261.312 272.072 264 272.096V304C259.584 304 256 300.416 256 296V272ZM280 303.992V272.32C282.736 272.392 285.328 272.504 288 272.6V295.992C287.992 300.4 284.408 303.984 280 303.992ZM279.992 256.368V240C284.408 240 287.992 243.584 287.992 248V256.64C285.288 256.536 282.616 256.448 279.992 256.368ZM279.992 224L279.984 184H343.992V224.008C330.76 224 320 234.76 320 248V258.424C314.608 258.024 309.264 257.68 303.992 257.384V248C303.992 234.76 293.224 224 279.992 224ZM336 248C336 243.584 339.584 240 344 240V260.568C341.336 260.288 338.672 260.024 336 259.768V248ZM360 303.992V278.544C362.68 278.92 365.448 279.28 368 279.672V295.992C367.992 300.4 364.408 303.984 360 303.992ZM111.992 127.992V64C111.992 41.944 129.928 24 151.992 24H343.984C366.048 24 383.984 41.944 383.984 64V128C383.984 132.416 380.4 136 375.984 136H119.992C115.576 135.992 111.992 132.408 111.992 127.992ZM359.984 151.992V159.992C359.984 164.4 356.4 167.992 351.984 167.992H271.992C267.576 167.992 263.992 164.408 263.992 159.992V151.992H359.984ZM256 248C256 243.584 259.584 240 264 240V256.048C261.264 256.016 258.576 256 256 256V248ZM240 272.184V295.992C240 309.224 250.768 319.992 264 319.992H279.992C293.224 319.992 303.992 309.224 303.992 295.992V273.288C309.464 273.584 314.848 273.904 320 274.288V295.984C320 309.216 330.768 319.984 344 319.984H359.992C373.224 319.984 383.992 309.216 383.992 295.984V282.48C419.72 289.392 438.472 298.072 439.76 303.4L438.744 306.448C429.856 316.912 368.032 336 256 336C143.92 336 82.088 316.904 73.232 306.44L72.224 303.416C74.464 294 131.416 274.016 240 272.184Z" fill="#E4964B"/>
<path d="M226.328 442.344C222.688 445.992 217.832 448 212.672 448H211.304C206.144 448 201.296 445.992 197.648 442.344C190.984 435.664 182.112 432 172.672 432H171.304C161.872 432 153 435.672 146.336 442.336L138.336 450.336L149.656 461.656L157.656 453.656C161.296 450 166.152 448 171.304 448H172.672C177.84 448 182.688 450.008 186.336 453.656C193 460.32 201.864 463.992 211.304 463.992H212.672C222.12 463.992 230.984 460.32 237.64 453.656L245.648 445.656L234.344 434.336L226.328 442.344Z" fill="#E4964B"/>
<path d="M362.328 426.344C358.688 429.992 353.832 432 348.672 432H347.304C342.144 432 337.296 429.992 333.648 426.344C326.984 419.664 318.112 416 308.672 416H307.304C297.872 416 289 419.672 282.336 426.336L274.336 434.336L285.656 445.656L293.656 437.656C297.296 434 302.152 432 307.304 432H308.672C313.84 432 318.688 434.008 322.336 437.656C329 444.32 337.864 447.992 347.304 447.992H348.672C358.12 447.992 366.984 444.32 373.64 437.656L381.648 429.656L370.344 418.336L362.328 426.344Z" fill="#E4964B"/>
<path d="M376 208C389.224 208 399.992 218.768 399.992 232H415.992C415.992 209.944 398.056 192 376 192V208Z" fill="#E4964B"/>
<path d="M248 208V192C237.304 192 227.256 196.16 219.704 203.712C212.152 211.272 207.992 221.32 208 232H224C223.992 225.584 226.488 219.56 231.024 215.024C235.552 210.496 241.584 208 248 208Z" fill="#E4964B"/>
</svg>
