<svg width="512" height="512" viewBox="0 0 512 512" fill="none" xmlns="http://www.w3.org/2000/svg">
<path d="M327.032 80.968L80.968 327.032C71.592 336.408 71.592 351.6 80.968 360.976L151.024 431.032C160.4 440.408 175.592 440.408 184.968 431.032L431.024 184.976C440.4 175.6 440.4 160.408 431.024 151.032L360.968 80.976C351.6 71.6 336.4 71.6 327.032 80.968Z" fill="#E4964B" fill-opacity="0.09"/>
<path d="M8.00005 467.312V468.68C8.00005 478.112 11.6721 486.984 18.3361 493.656C25.0081 500.32 33.8561 503.992 43.2721 503.992C43.2801 503.992 43.2961 503.992 43.3121 503.984H44.6801C54.1121 503.984 62.9761 500.32 69.6481 493.656L105.096 458.2C109.76 460.656 114.848 462.032 119.992 462.032C128.184 462.032 136.384 458.912 142.624 452.672L153.096 442.2C157.76 444.656 162.848 446.032 167.992 446.032C176.184 446.032 184.384 442.912 190.624 436.68L211.616 415.688C212.264 416.392 212.952 417.048 213.512 417.832C234.744 447.024 268.248 464 304.056 464C306.088 464 308.12 463.944 310.168 463.832C351.12 461.624 387.816 435.864 405.928 396.624C409.048 389.872 411.464 382.936 413.136 376.008C418.968 351.712 433.472 330.84 453.968 317.224C489.032 293.904 507.928 253.32 503.288 211.288C499.928 180.896 483.336 152.736 458.552 134.256C460.752 129.864 462.04 125.056 462.04 120C462.04 114.696 460.624 109.648 458.2 105.096L493.648 69.656C500.312 62.992 503.976 54.12 503.976 44.688V43.312C503.976 33.88 500.304 25.008 493.64 18.344C486.984 11.664 478.112 8 468.68 8H467.312C457.872 8 449 11.672 442.336 18.336L406.88 53.784C394.8 47.416 379.512 49.16 369.368 59.304L358.888 69.784C352.056 66.184 344.264 65.16 336.88 66.832C315.792 44.712 286.68 32 255.992 32C222.152 32 190.488 47.096 169.128 73.4C157.464 87.76 139.576 96 120.064 96C120.048 96.008 120.008 96 119.984 96C111.264 96 102.472 97.048 93.8321 99.104C48.4641 109.896 14.3041 148.144 8.80805 194.288C3.88005 235.632 21.9281 276.072 55.9041 299.816C64.0801 305.528 70.3121 313.352 74.4081 322.464C65.1361 332.608 63.6241 347.2 69.784 358.88L59.3041 369.36C49.1521 379.52 47.4081 394.792 53.7761 406.88L18.3281 442.336C11.6561 449.016 7.98405 457.88 8.00005 467.312ZM487.392 213.04C491.368 249.096 475.168 283.904 445.112 303.896C421.256 319.744 404.368 344.032 397.592 372.256C396.168 378.168 394.088 384.104 391.416 389.904C375.792 423.752 344.328 445.96 309.32 447.848C276.488 449.656 245.688 434.848 226.464 408.4C225.4 406.944 224.136 405.688 222.912 404.4L436.688 190.616C442.736 184.576 446.064 176.536 446.064 167.984C446.064 162.672 444.64 157.632 442.224 153.072L448.576 146.728C470.072 162.584 484.496 186.848 487.392 213.04ZM453.656 29.648C457.296 26 462.152 24 467.312 24H468.68C473.84 24 478.688 26.008 482.336 29.656C485.984 33.304 487.984 38.152 487.984 43.312V44.688C487.984 49.848 485.984 54.696 482.336 58.344L447.992 92.688L419.304 64L453.656 29.648ZM403.304 70.624L441.368 108.68C444.384 111.696 446.048 115.72 446.048 119.992C446.048 124.264 444.384 128.288 441.368 131.304L431.992 140.68L371.304 79.992L380.672 70.624C386.92 64.384 397.072 64.384 403.304 70.624ZM355.304 86.624L425.368 156.68C428.384 159.696 430.048 163.72 430.048 167.992C430.048 172.264 428.384 176.288 425.36 179.304L204 400.664L149.664 346.328L138.344 357.648L192.68 411.984L179.312 425.352C173.08 431.6 162.92 431.6 156.688 425.352L86.6321 355.296C83.6081 352.272 81.9361 348.256 81.9361 343.984C81.9361 339.712 83.6081 335.696 86.6321 332.672L308 111.304L362.336 165.64L373.656 154.32L319.312 100L332.68 86.632C338.928 80.384 349.072 80.384 355.304 86.624ZM65.0721 286.696C35.9441 266.336 20.4721 231.656 24.6961 196.184C29.4001 156.672 58.6721 123.92 97.5361 114.672C104.968 112.896 112.512 112 119.984 112H120.064C144.416 112 166.832 101.608 181.544 83.496C199.856 60.936 226.992 48 255.992 48C280.784 48 304.424 57.648 322.192 74.64C321.928 74.888 321.624 75.056 321.368 75.312H321.36L86.3201 310.352C81.1121 300.968 73.9441 292.896 65.0721 286.696ZM70.6241 380.672L79.9841 371.304L140.672 431.992L131.304 441.36C125.072 447.608 114.912 447.608 108.68 441.36L70.6241 403.304C67.6001 400.28 65.9281 396.264 65.9281 391.992C65.9281 387.72 67.6001 383.704 70.6241 380.672ZM24.0001 467.296C23.9921 462.144 26.0001 457.304 29.6481 453.656L63.9921 419.312L92.6721 447.992L58.3281 482.336C54.6881 485.984 49.8321 487.984 44.6801 487.984H43.2961C43.2881 487.992 43.2881 487.992 43.2801 487.992C38.1281 487.984 33.2961 485.976 29.6481 482.328C26.0001 478.688 24.0001 473.832 24.0001 468.68V467.296Z" fill="#E4964B"/>
<path d="M378.266 181.68L389.585 170.361L405.583 186.358L394.263 197.678L378.266 181.68Z" fill="#E4964B"/>
<path d="M106.29 325.621L117.609 314.301L133.606 330.299L122.287 341.618L106.29 325.621Z" fill="#E4964B"/>
<path d="M119.992 152V136C80.296 136 48 168.296 48 207.992H64C64 177.12 89.12 152 119.992 152Z" fill="#E4964B"/>
</svg>
