<svg width="235" height="168" viewBox="0 0 235 168" fill="none" xmlns="http://www.w3.org/2000/svg">
<g clip-path="url(#clip0_1_561)">
<path d="M81.8 168C70.2 168 60.0667 164.867 51.4 158.6C42.7333 152.333 36 142.933 31.2 130.4C26.4 117.733 24 102.267 24 84C24 65.7333 26.4 50.3333 31.2 37.8C36 25.1333 42.7333 15.6667 51.4 9.4C60.0667 3.13333 70.2 0 81.8 0C93.4 0 103.533 3.13333 112.2 9.4C120.867 15.6667 127.6 25.1333 132.4 37.8C137.2 50.3333 139.6 65.7333 139.6 84C139.6 102.267 137.2 117.733 132.4 130.4C127.6 142.933 120.867 152.333 112.2 158.6C103.533 164.867 93.4 168 81.8 168ZM81.8 163.4C91.8 163.4 99.6667 158.533 105.4 148.8C111.133 139.067 114 123.867 114 103.2V64.6C114 44.0667 111.133 28.9333 105.4 19.2C99.6667 9.46667 91.8 4.6 81.8 4.6C71.8 4.6 63.9333 9.46667 58.2 19.2C52.4667 28.9333 49.6 44.0667 49.6 64.6V103.2C49.6 123.733 52.4667 138.933 58.2 148.8C63.9333 158.533 71.8 163.4 81.8 163.4Z" fill="#E4964B" fill-opacity="0.03"/>
<path d="M162.458 164V160L176.458 158V10L162.458 8V4.00001H196.458V158L210.458 160V164H162.458Z" fill="#E4964B" fill-opacity="0.03"/>
</g>
<defs>
<clipPath id="clip0_1_561">
<rect width="235" height="168" fill="white"/>
</clipPath>
</defs>
</svg>
