<svg width="237" height="168" viewBox="0 0 237 168" fill="none" xmlns="http://www.w3.org/2000/svg">
<path d="M58.5998 168C46.9998 168 36.8665 164.867 28.1998 158.6C19.5331 152.333 12.7998 142.933 7.9998 130.4C3.1998 117.733 0.799805 102.267 0.799805 84C0.799805 65.7333 3.1998 50.3333 7.9998 37.8C12.7998 25.1333 19.5331 15.6667 28.1998 9.4C36.8665 3.13333 46.9998 0 58.5998 0C70.1998 0 80.3331 3.13333 88.9998 9.4C97.6665 15.6667 104.4 25.1333 109.2 37.8C114 50.3333 116.4 65.7333 116.4 84C116.4 102.267 114 117.733 109.2 130.4C104.4 142.933 97.6665 152.333 88.9998 158.6C80.3331 164.867 70.1998 168 58.5998 168ZM58.5998 163.4C68.5998 163.4 76.4665 158.533 82.1998 148.8C87.9331 139.067 90.7998 123.867 90.7998 103.2V64.6C90.7998 44.0667 87.9331 28.9333 82.1998 19.2C76.4665 9.46667 68.5998 4.6 58.5998 4.6C48.5998 4.6 40.7331 9.46667 34.9998 19.2C29.2665 28.9333 26.3998 44.0667 26.3998 64.6V103.2C26.3998 123.733 29.2665 138.933 34.9998 148.8C40.7331 158.533 48.5998 163.4 58.5998 163.4Z" fill="#E4964B" fill-opacity="0.03"/>
<path d="M135.858 148.6L178.058 105.6C189.124 94.1333 197.524 83 203.258 72.2C209.124 61.2667 212.058 50 212.058 38.4C212.058 26.6667 209.524 18.1333 204.458 12.8C199.524 7.33333 192.791 4.6 184.258 4.6C177.591 4.6 171.791 6.4 166.858 10C161.924 13.6 159.458 18.3333 159.458 24.2C159.458 31.2667 162.991 36.5333 170.058 40C170.058 44.8 168.591 48.4667 165.658 51C162.724 53.5333 159.258 54.8 155.258 54.8C150.991 54.8 147.324 53.2667 144.258 50.2C141.191 47 139.658 42.6667 139.658 37.2C139.658 30 141.858 23.6 146.258 18C150.658 12.2667 156.524 7.86666 163.858 4.8C171.191 1.6 179.058 0 187.458 0C203.724 0 215.791 3.86667 223.658 11.6C231.524 19.2 235.458 29.2667 235.458 41.8C235.458 49.4 233.858 56.4 230.658 62.8C227.591 69.0667 223.858 74.5333 219.458 79.2C215.191 83.8667 209.324 89.4667 201.858 96L196.258 100.8L148.458 143H223.058L231.258 113.4H236.458V164H135.858V148.6Z" fill="#E4964B" fill-opacity="0.03"/>
</svg>
