<svg width="242" height="168" viewBox="0 0 242 168" fill="none" xmlns="http://www.w3.org/2000/svg">
<path d="M58.5998 168C46.9998 168 36.8665 164.867 28.1998 158.6C19.5331 152.333 12.7998 142.933 7.9998 130.4C3.1998 117.733 0.799805 102.267 0.799805 84C0.799805 65.7333 3.1998 50.3333 7.9998 37.8C12.7998 25.1333 19.5331 15.6667 28.1998 9.4C36.8665 3.13333 46.9998 0 58.5998 0C70.1998 0 80.3331 3.13333 88.9998 9.4C97.6665 15.6667 104.4 25.1333 109.2 37.8C114 50.3333 116.4 65.7333 116.4 84C116.4 102.267 114 117.733 109.2 130.4C104.4 142.933 97.6665 152.333 88.9998 158.6C80.3331 164.867 70.1998 168 58.5998 168ZM58.5998 163.4C68.5998 163.4 76.4665 158.533 82.1998 148.8C87.9331 139.067 90.7998 123.867 90.7998 103.2V64.6C90.7998 44.0667 87.9331 28.9333 82.1998 19.2C76.4665 9.46667 68.5998 4.6 58.5998 4.6C48.5998 4.6 40.7331 9.46667 34.9998 19.2C29.2665 28.9333 26.3998 44.0667 26.3998 64.6V103.2C26.3998 123.733 29.2665 138.933 34.9998 148.8C40.7331 158.533 48.5998 163.4 58.5998 163.4Z" fill="#E4964B" fill-opacity="0.03"/>
<path d="M181.658 168C173.391 168 165.791 166.4 158.858 163.2C152.058 160 146.658 155.667 142.658 150.2C138.658 144.733 136.658 138.6 136.658 131.8C136.658 126.333 138.191 122.067 141.258 119C144.324 115.8 147.991 114.2 152.258 114.2C156.258 114.2 159.724 115.467 162.658 118C165.591 120.533 167.058 124.2 167.058 129C159.991 132.467 156.458 137.8 156.458 145C156.458 150.467 158.724 154.933 163.258 158.4C167.924 161.733 174.058 163.4 181.658 163.4C191.258 163.4 199.058 159.8 205.058 152.6C211.058 145.4 214.058 135.333 214.058 122.4C214.058 108.4 210.058 97.6 202.058 90C194.058 82.2667 182.258 77.9333 166.658 77V72.6C180.658 71.8 191.524 68.0667 199.258 61.4C207.124 54.6 211.058 45.4667 211.058 34C211.058 25.0667 208.591 17.9333 203.658 12.6C198.858 7.26667 192.391 4.6 184.258 4.6C176.924 4.6 171.124 5.86667 166.858 8.4C162.724 10.8 160.658 14.2 160.658 18.6C160.658 25.6667 163.991 30.7333 170.658 33.8C170.658 38.3333 169.258 41.8667 166.458 44.4C163.791 46.8 160.524 48 156.658 48C152.658 48 149.191 46.4667 146.258 43.4C143.324 40.3333 141.858 36.2667 141.858 31.2C141.858 25.2 143.924 19.8667 148.058 15.2C152.191 10.4 157.658 6.66667 164.458 4.00001C171.391 1.33334 178.724 0 186.458 0C201.658 0 213.524 3.06667 222.058 9.2C230.591 15.3333 234.858 23.9333 234.858 35C234.858 46.6 230.658 55.6 222.258 62C213.991 68.2667 201.924 72.4667 186.058 74.6V75.2C202.724 76 216.124 80.4667 226.258 88.6C236.524 96.6 241.658 107.867 241.658 122.4C241.658 130.533 239.391 138.067 234.858 145C230.458 151.933 223.724 157.533 214.658 161.8C205.724 165.933 194.724 168 181.658 168Z" fill="#E4964B" fill-opacity="0.03"/>
</svg>
