<svg width="237" height="168" viewBox="0 0 237 168" fill="none" xmlns="http://www.w3.org/2000/svg">
<path d="M58.5998 168C46.9998 168 36.8665 164.867 28.1998 158.6C19.5331 152.333 12.7998 142.933 7.9998 130.4C3.1998 117.733 0.799805 102.267 0.799805 84C0.799805 65.7333 3.1998 50.3333 7.9998 37.8C12.7998 25.1333 19.5331 15.6667 28.1998 9.4C36.8665 3.13333 46.9998 0 58.5998 0C70.1998 0 80.3331 3.13333 88.9998 9.4C97.6665 15.6667 104.4 25.1333 109.2 37.8C114 50.3333 116.4 65.7333 116.4 84C116.4 102.267 114 117.733 109.2 130.4C104.4 142.933 97.6665 152.333 88.9998 158.6C80.3331 164.867 70.1998 168 58.5998 168ZM58.5998 163.4C68.5998 163.4 76.4665 158.533 82.1998 148.8C87.9331 139.067 90.7998 123.867 90.7998 103.2V64.6C90.7998 44.0667 87.9331 28.9333 82.1998 19.2C76.4665 9.46667 68.5998 4.6 58.5998 4.6C48.5998 4.6 40.7331 9.46667 34.9998 19.2C29.2665 28.9333 26.3998 44.0667 26.3998 64.6V103.2C26.3998 123.733 29.2665 138.933 34.9998 148.8C40.7331 158.533 48.5998 163.4 58.5998 163.4Z" fill="#E4964B" fill-opacity="0.03"/>
<path d="M177.258 164V159.8L195.658 156.8V125.6H128.258V121.4L213.058 4.00001H217.658V116.2H236.058V125.6H217.658V156.8L236.058 159.8V164H177.258ZM138.058 116.2H195.658V36.4L138.058 116.2Z" fill="#E4964B" fill-opacity="0.03"/>
</svg>
