<svg width="512" height="512" viewBox="0 0 512 512" fill="none" xmlns="http://www.w3.org/2000/svg">
<path d="M112 160L192.584 48.424C207.288 28.064 230.88 16 256 16C281.12 16 304.712 28.064 319.416 48.424L400 160" fill="#E4964B" fill-opacity="0.09"/>
<path d="M155.576 372.272C152.808 375.296 152.776 379.92 155.496 382.984L218.008 453.312C219.56 455.056 221.76 456 224 456C224.952 456 225.912 455.832 226.84 455.48C229.944 454.288 232 451.312 232 447.992C231.992 441.576 234.488 435.552 239.024 431.016C243.552 426.488 249.576 423.984 255.992 423.984C269.216 423.984 279.984 434.76 279.984 447.984C279.984 451.312 282.04 454.288 285.152 455.472C288.248 456.656 291.768 455.792 293.976 453.304L356.488 382.984C359.208 379.92 359.176 375.296 356.408 372.272C330.688 344.12 294.088 327.992 255.992 327.992C217.896 327.992 181.296 344.128 155.576 372.272ZM292.264 431.144C287.672 421.304 279.176 413.696 268.808 410.176L286.864 380.112L273.144 371.888L251.192 408.464C242.336 409.528 234.112 413.312 227.712 419.712C224.352 423.08 221.656 426.936 219.712 431.136L172.408 377.92C179.512 371.032 187.464 365.208 195.928 360.312L209.344 380.44L222.664 371.576L210.344 353.088C222.264 348.176 234.984 345.272 248 344.4V367.992L264 367.984L263.992 344.384C277.008 345.264 289.736 348.168 301.656 353.072L289.344 371.544L302.664 380.424L316.08 360.296C324.536 365.192 332.496 371.008 339.592 377.896L292.264 431.144Z" fill="#E4964B"/>
<path d="M432 151.992H404.08L325.896 43.736C309.736 21.352 283.608 8 256.016 8C256.008 8 256 8 255.992 8C228.384 8 202.248 21.36 186.088 43.736L107.896 151.992H79.9919C66.7599 151.992 55.9919 162.76 55.9919 175.992C55.9919 206.864 81.1119 231.984 111.992 231.984H224V256.648C205.952 267.128 193.512 286.136 192.192 308.144C126.512 334.464 79.9919 400.624 79.9919 476.024C79.9919 491.448 92.5359 503.984 107.96 503.984H404.024C419.448 503.984 431.984 491.448 431.984 476.032L431.992 472C432 472 432 471.992 432 471.984C431.992 422.792 411.176 375.496 374.896 342.232C358.464 327.168 339.824 315.656 319.784 307.864C318.384 285.976 305.968 267.072 287.992 256.64V231.976H400C430.864 231.976 455.984 206.856 455.984 175.984C455.984 162.76 445.224 151.992 432 151.992ZM199.064 53.104C212.216 34.872 233.504 24 256 24H256.024C278.496 24 299.768 34.872 312.92 53.104L384.344 151.992H127.632L199.064 53.104ZM416 471.976L415.984 476.024C415.984 482.616 410.616 487.984 404.024 487.984H107.96C101.36 487.984 95.9919 482.616 95.9919 476.024C95.9919 391.504 159.968 319.72 241.648 312.616C246.504 312.192 251.344 311.984 256.144 311.984C296.32 311.984 334.216 326.64 364.08 354.024C397.072 384.264 415.984 427.256 416 471.976ZM303.016 302.312C282.976 296.8 261.832 294.832 240.272 296.672C229.52 297.608 219.064 299.616 208.96 302.488C213.384 280.56 232.792 263.992 256.008 263.992C279.152 263.992 298.528 280.472 303.016 302.312ZM272 250.096C266.872 248.768 261.536 247.992 256 247.992C250.464 247.992 245.12 248.768 239.992 250.096V231.984H272V250.096ZM400 215.984H111.992C89.9279 215.984 71.9919 198.048 71.9919 175.992C71.9919 171.576 75.5759 167.992 79.9919 167.992H432C436.408 167.992 439.984 171.576 439.984 175.992C439.984 198.048 422.048 215.984 400 215.984Z" fill="#E4964B"/>
<path d="M383.992 471.984C392.816 471.984 399.984 464.816 399.984 455.992C399.984 447.16 392.816 439.992 383.992 439.992C375.16 439.992 367.992 447.16 367.992 455.992C367.992 464.816 375.168 471.984 383.992 471.984Z" fill="#E4964B"/>
<path d="M128 439.992C119.168 439.992 112 447.16 112 455.992C112 464.816 119.168 471.984 128 471.984C136.824 471.984 143.992 464.816 143.992 455.992C143.992 447.168 136.824 439.992 128 439.992Z" fill="#E4964B"/>
<path d="M263.992 55.992H279.984V71.984H263.992V55.992Z" fill="#E4964B"/>
<path d="M296 95.992H311.992V111.984H296V95.992Z" fill="#E4964B"/>
<path d="M328 119.992H343.992V135.984H328V119.992Z" fill="#E4964B"/>
<path d="M216 71.992H231.992V87.984H216V71.992Z" fill="#E4964B"/>
<path d="M184 111.992H199.992V127.984H184V111.992Z" fill="#E4964B"/>
<path d="M248 103.992H263.992V119.984H248V103.992Z" fill="#E4964B"/>
</svg>
